<svg width="48" height="48" viewBox="0 0 48 48" fill="none" xmlns="http://www.w3.org/2000/svg">
<path d="M48 13.242L43.758 9L35.379 17.379L30.621 12.621L39 4.242L34.758 0L26.379 8.379L21 3L16.938 7.059L40.938 31.059L45 27L39.621 21.621L48 13.242Z" fill="#7000FF"/>
<path d="M37.221 31.584L16.416 10.779C11.925 16.164 6.82798 24.489 10.35 31.65L4.15198 37.848C3.45143 38.5528 3.05823 39.5062 3.05823 40.5C3.05823 41.4938 3.45143 42.4472 4.15198 43.152L4.84798 43.848C5.55282 44.5485 6.50622 44.9417 7.49998 44.9417C8.49375 44.9417 9.44714 44.5485 10.152 43.848L16.35 37.65C23.511 41.172 31.833 36.078 37.221 31.584Z" fill="black"/>
</svg>
