<svg width="31" height="30" viewBox="0 0 31 30" fill="none" xmlns="http://www.w3.org/2000/svg">
<path d="M25.9021 -0.000366211H5.9034C4.57836 0.00359061 3.30873 0.531711 2.37179 1.46865C1.43485 2.4056 0.906728 3.67523 0.902771 5.00026L0.902771 24.999C0.902771 27.7515 3.15277 29.9996 5.9034 29.9996H25.9021C27.2273 29.9962 28.4972 29.4682 29.4343 28.5312C30.3713 27.5941 30.8993 26.3242 30.9028 24.999V5.00026C30.9028 2.24963 28.6528 -0.000366211 25.9021 -0.000366211ZM6.25402 25.9759L3.9909 23.7128L11.4909 16.2128L12.3478 17.0696L6.25402 25.9759ZM5.39527 5.81963L6.25215 4.96276L15.9009 12.7365L25.5496 4.96276L26.4065 5.81963L15.899 18.2021L5.39152 5.81963H5.39527ZM25.5515 25.9759L19.4578 17.0696L20.3146 16.2128L27.8146 23.7128L25.5515 25.9759Z" fill="white"/>
</svg>
