<svg width="575" height="294" viewBox="0 0 575 294" fill="none" xmlns="http://www.w3.org/2000/svg">
<g clip-path="url(#clip0)">
<path fill-rule="evenodd" clip-rule="evenodd" d="M97.6833 204.608H10.0188V212.122H97.6833V204.608ZM17.5329 219.636H90.1692V227.15H17.5329V219.636ZM25.047 234.664H82.6551V242.179H25.047V234.664Z" fill="#7000FF"/>
<path fill-rule="evenodd" clip-rule="evenodd" d="M97.6833 204.608H10.0188V212.122H97.6833V204.608ZM17.5329 219.636H90.1692V227.15H17.5329V219.636ZM25.047 234.664H82.6551V242.179H25.047V234.664Z" fill="url(#paint0_linear)" fill-opacity="0.68"/>
<path d="M107.702 179.561H0V192.085H107.702V179.561Z" fill="#7000FF"/>
<path d="M107.702 179.561H0V192.085H107.702V179.561Z" fill="url(#paint1_linear)" fill-opacity="0.68"/>
<path d="M95.1786 51.8214H12.5235C5.60696 51.8214 0 57.4284 0 64.3449V147C0 153.917 5.60696 159.523 12.5235 159.523H95.1786C102.095 159.523 107.702 153.917 107.702 147V64.3449C107.702 57.4284 102.095 51.8214 95.1786 51.8214Z" fill="#3EC6FF"/>
<path d="M90.1691 139.486V135.446C90.1691 134.314 89.5096 133.299 88.513 132.896C76.8193 128.172 63.8382 122.309 62.7472 118.654V114.82C65.173 112.227 67.0861 108.608 68.2187 104.375C70.939 102.376 71.6156 98.2611 69.3636 95.3657V86.7846C69.3636 77.923 64.6435 71.8591 53.8522 71.8591C43.3395 71.8591 38.3351 77.923 38.3351 86.7846V95.3682C36.0884 98.2611 36.7632 102.374 39.4803 104.373C40.6124 108.608 42.5272 112.227 44.9543 114.82V118.654C43.8665 122.304 30.8821 128.17 19.1889 132.896C18.1923 133.299 17.5328 134.314 17.5328 135.446V139.486" stroke="white"/>
<path fill-rule="evenodd" clip-rule="evenodd" d="M253.385 204.608H165.721V212.122H253.385V204.608ZM173.235 219.636H245.871V227.15H173.235V219.636ZM180.749 234.664H238.357V242.179H180.749V234.664Z" fill="#7000FF"/>
<path fill-rule="evenodd" clip-rule="evenodd" d="M253.385 204.608H165.721V212.122H253.385V204.608ZM173.235 219.636H245.871V227.15H173.235V219.636ZM180.749 234.664H238.357V242.179H180.749V234.664Z" fill="url(#paint2_linear)" fill-opacity="0.68"/>
<path d="M263.404 179.561H155.702V192.085H263.404V179.561Z" fill="#7000FF"/>
<path d="M263.404 179.561H155.702V192.085H263.404V179.561Z" fill="url(#paint3_linear)" fill-opacity="0.68"/>
<path d="M250.881 51.8214H168.226C161.309 51.8214 155.702 57.4284 155.702 64.3449V147C155.702 153.917 161.309 159.523 168.226 159.523H250.881C257.797 159.523 263.404 153.917 263.404 147V64.3449C263.404 57.4284 257.797 51.8214 250.881 51.8214Z" fill="#3EC6FF"/>
<path d="M245.871 139.486V135.446C245.871 134.314 245.212 133.299 244.215 132.896C232.521 128.172 219.54 122.309 218.449 118.654V114.82C220.875 112.227 222.788 108.608 223.921 104.375C226.641 102.376 227.318 98.2611 225.066 95.3657V86.7846C225.066 77.923 220.346 71.8591 209.554 71.8591C199.042 71.8591 194.037 77.923 194.037 86.7846V95.3682C191.791 98.2611 192.465 102.374 195.182 104.373C196.315 108.608 198.229 112.227 200.656 114.82V118.654C199.569 122.304 186.584 128.17 174.891 132.896C173.894 133.299 173.235 134.314 173.235 135.446V139.486" stroke="white"/>
<path fill-rule="evenodd" clip-rule="evenodd" d="M409.087 204.608H321.423V212.122H409.087V204.608ZM328.937 219.636H401.573V227.15H328.937V219.636ZM336.451 234.664H394.059V242.179H336.451V234.664Z" fill="#7000FF"/>
<path fill-rule="evenodd" clip-rule="evenodd" d="M409.087 204.608H321.423V212.122H409.087V204.608ZM328.937 219.636H401.573V227.15H328.937V219.636ZM336.451 234.664H394.059V242.179H336.451V234.664Z" fill="url(#paint4_linear)" fill-opacity="0.68"/>
<path d="M419.106 179.561H311.404V192.085H419.106V179.561Z" fill="#7000FF"/>
<path d="M419.106 179.561H311.404V192.085H419.106V179.561Z" fill="url(#paint5_linear)" fill-opacity="0.68"/>
<path d="M406.583 51.8214H323.928C317.011 51.8214 311.404 57.4284 311.404 64.3449V147C311.404 153.917 317.011 159.523 323.928 159.523H406.583C413.499 159.523 419.106 153.917 419.106 147V64.3449C419.106 57.4284 413.499 51.8214 406.583 51.8214Z" fill="#3EC6FF"/>
<path d="M401.573 139.486V135.446C401.573 134.314 400.914 133.299 399.917 132.896C388.223 128.172 375.242 122.309 374.151 118.654V114.82C376.577 112.227 378.49 108.608 379.623 104.375C382.343 102.376 383.02 98.2611 380.768 95.3657V86.7846C380.768 77.923 376.048 71.8591 365.256 71.8591C354.744 71.8591 349.739 77.923 349.739 86.7846V95.3682C347.493 98.2611 348.167 102.374 350.884 104.373C352.017 108.608 353.931 112.227 356.358 114.82V118.654C355.271 122.304 342.286 128.17 330.593 132.896C329.596 133.299 328.937 134.314 328.937 135.446V139.486" stroke="white"/>
<path fill-rule="evenodd" clip-rule="evenodd" d="M564.789 204.608H477.125V212.122H564.789V204.608ZM484.639 219.636H557.275V227.15H484.639V219.636ZM492.153 234.664H549.761V242.179H492.153V234.664Z" fill="#7000FF"/>
<path fill-rule="evenodd" clip-rule="evenodd" d="M564.789 204.608H477.125V212.122H564.789V204.608ZM484.639 219.636H557.275V227.15H484.639V219.636ZM492.153 234.664H549.761V242.179H492.153V234.664Z" fill="url(#paint6_linear)" fill-opacity="0.68"/>
<path d="M574.808 179.561H467.106V192.085H574.808V179.561Z" fill="#7000FF"/>
<path d="M574.808 179.561H467.106V192.085H574.808V179.561Z" fill="url(#paint7_linear)" fill-opacity="0.68"/>
<path d="M562.285 51.8214H479.63C472.713 51.8214 467.106 57.4284 467.106 64.3449V147C467.106 153.917 472.713 159.523 479.63 159.523H562.285C569.201 159.523 574.808 153.917 574.808 147V64.3449C574.808 57.4284 569.201 51.8214 562.285 51.8214Z" fill="#3EC6FF"/>
<path d="M557.275 139.486V135.446C557.275 134.314 556.616 133.299 555.619 132.896C543.926 128.172 530.944 122.309 529.853 118.654V114.82C532.279 112.227 534.192 108.608 535.325 104.375C538.045 102.376 538.722 98.2611 536.47 95.3657V86.7846C536.47 77.923 531.75 71.8591 520.958 71.8591C510.446 71.8591 505.441 77.923 505.441 86.7846V95.3682C503.195 98.2611 503.869 102.374 506.586 104.373C507.719 108.608 509.633 112.227 512.06 114.82V118.654C510.973 122.304 497.988 128.17 486.295 132.896C485.299 133.299 484.639 134.314 484.639 135.446V139.486" stroke="white"/>
</g>
<defs>
<linearGradient id="paint0_linear" x1="53.851" y1="179.561" x2="53.851" y2="242.179" gradientUnits="userSpaceOnUse">
<stop stop-color="#060606" stop-opacity="0.1"/>
<stop offset="0.223958" stop-color="#050505" stop-opacity="0.4"/>
<stop offset="1"/>
</linearGradient>
<linearGradient id="paint1_linear" x1="53.851" y1="179.561" x2="53.851" y2="242.179" gradientUnits="userSpaceOnUse">
<stop stop-color="#060606" stop-opacity="0.1"/>
<stop offset="0.223958" stop-color="#050505" stop-opacity="0.4"/>
<stop offset="1"/>
</linearGradient>
<linearGradient id="paint2_linear" x1="209.553" y1="179.561" x2="209.553" y2="242.179" gradientUnits="userSpaceOnUse">
<stop stop-color="#060606" stop-opacity="0.1"/>
<stop offset="0.223958" stop-color="#050505" stop-opacity="0.4"/>
<stop offset="1"/>
</linearGradient>
<linearGradient id="paint3_linear" x1="209.553" y1="179.561" x2="209.553" y2="242.179" gradientUnits="userSpaceOnUse">
<stop stop-color="#060606" stop-opacity="0.1"/>
<stop offset="0.223958" stop-color="#050505" stop-opacity="0.4"/>
<stop offset="1"/>
</linearGradient>
<linearGradient id="paint4_linear" x1="365.255" y1="179.561" x2="365.255" y2="242.179" gradientUnits="userSpaceOnUse">
<stop stop-color="#060606" stop-opacity="0.1"/>
<stop offset="0.223958" stop-color="#050505" stop-opacity="0.4"/>
<stop offset="1"/>
</linearGradient>
<linearGradient id="paint5_linear" x1="365.255" y1="179.561" x2="365.255" y2="242.179" gradientUnits="userSpaceOnUse">
<stop stop-color="#060606" stop-opacity="0.1"/>
<stop offset="0.223958" stop-color="#050505" stop-opacity="0.4"/>
<stop offset="1"/>
</linearGradient>
<linearGradient id="paint6_linear" x1="520.957" y1="179.561" x2="520.957" y2="242.179" gradientUnits="userSpaceOnUse">
<stop stop-color="#060606" stop-opacity="0.1"/>
<stop offset="0.223958" stop-color="#050505" stop-opacity="0.4"/>
<stop offset="1"/>
</linearGradient>
<linearGradient id="paint7_linear" x1="520.957" y1="179.561" x2="520.957" y2="242.179" gradientUnits="userSpaceOnUse">
<stop stop-color="#060606" stop-opacity="0.1"/>
<stop offset="0.223958" stop-color="#050505" stop-opacity="0.4"/>
<stop offset="1"/>
</linearGradient>
<clipPath id="clip0">
<rect width="574.808" height="294" fill="white"/>
</clipPath>
</defs>
</svg>
