<svg width="31" height="30" viewBox="0 0 31 30" fill="none" xmlns="http://www.w3.org/2000/svg">
<path d="M22.9028 17.9998C20.9028 19.9998 20.9028 21.9998 18.9028 21.9998C16.9028 21.9998 14.9028 19.9998 12.9028 17.9998C10.9028 15.9998 8.90277 13.9998 8.90277 11.9998C8.90277 9.99976 10.9028 9.99976 12.9028 7.99976C14.9028 5.99976 8.90277 -0.000244141 6.90277 -0.000244141C4.90277 -0.000244141 0.902771 5.99976 0.902771 5.99976C0.902771 9.99976 5.01277 18.1098 8.90277 21.9998C12.7928 25.8898 20.9028 29.9998 24.9028 29.9998C24.9028 29.9998 30.9028 25.9998 30.9028 23.9998C30.9028 21.9998 24.9028 15.9998 22.9028 17.9998Z" fill="white"/>
</svg>
